<?xml version="1.0" encoding="utf-8"?>
<!-- Generator: Adobe Illustrator 19.1.0, SVG Export Plug-In . SVG Version: 6.00 Build 0)  -->
<svg version="1.1" xmlns="http://www.w3.org/2000/svg" xmlns:xlink="http://www.w3.org/1999/xlink" x="0px" y="0px"
	 viewBox="0 0 1680 833" style="enable-background:new 0 0 1680 833;" xml:space="preserve">
<style type="text/css">
	.st0{fill:#FFFFFF;}
	.st1{fill:#E6F0FA;}
</style>
<g id="Foam">
	<path class="st0" d="M325,65.6c31.6,61.9,60.1,53.6,106.8,137.3c42,75.4,32.7,106.9,79.7,157.6c43.1,46.5,73.9,44.8,78,72.9
		c5.5,38.3-49.8,55.3-137.3,149.2c-41.5,44.5-83.6,99.3-105.1,172.9c-13.4,46-8.9,65.7-3.4,78c19.7,44.1,86.4,71.4,135.6,55.9
		c56.1-17.7,45-76.9,127.1-127.1c7.4-4.5,38.4-22.9,83.1-33.9c31-7.6,58.6-9.3,91.5-8.5c74.2,1.8,95.9,13.8,157.6,20.3
		c62.7,6.6,143.8,15.1,213.6-28.8c19.7-12.4,60.5-38.1,64.4-78c5.4-55.1-62.7-108.1-76.3-118.6c-40.6-31.5-69.9-34-76.3-61
		c-5.8-24.8,12.8-48.6,23.7-62.7c33.2-42.6,80.8-56.3,139-72.9c15.4-4.4,54.7-14.9,106.8-18.6c52.1-3.7,87.8-5.8,118.6,16.9
		c8.6,6.3,30,22.1,32.2,45.8c2.4,25.3-18.9,43.6-67.8,89.8c-59.2,55.9-88.9,84.2-93.2,96.6c-12.7,36.6,10.5,44.2,30.5,159.3
		c10,57.6,7.3,73.4,23.7,100c3.8,6.1,39.5,64,86.4,64.4c92.3,0.8,181.1-221.2,184.7-230.5c6.2-15.7,20.5-54.9,55.9-93.2
		c25.4-27.5,49.8-41.7,55.9-45.8c97.9-64.1,120-518.3-44.1-583.1c-84.2-33.2-133.3,69.2-293.2,76.3
		c-144.2,6.4-206.2-72.4-366.1-145.8c-285.3-130.9-667.4-146-747.5-10.2C273.3-98,293.9,4.7,325,65.6z"/>
</g>
<g id="Water">
	<path class="st1" d="M396.2,67.3c23.2,176.3,210.3,307.2,240.7,316.9c2,0.6,10.1,2.9,15.3,10.2c13.2,18.6-5.5,52.1-6.8,54.2
		c-16.3,28.3-43.6,38-66.1,49.2c-70.8,35.1-110.1,92.9-132.2,125.4c-20.2,29.7-46.8,70-40.7,120.3c2,16.9,5.1,42.1,22,50.8
		c26.7,13.8,59.9-27.7,154.2-79.7c47.6-26.3,72.3-39.6,108.5-45.8c41-7,52.7,2.8,132.2,13.6c0,0,87.4,11.9,228.8-3.4
		c22.5-2.4,47.6-5.8,62.7-25.4c16.7-21.6,15.6-56,1.7-79.7c-11.2-19-28.4-27.3-45.8-35.6c-33.4-16-48.6-10-79.7-20.3
		c-8.9-3-67.1-22.4-74.6-54.2c-11-46.6,85.8-121.6,183.1-157.6c97.3-36,169.6-23.5,176.3-52.5c5.4-23.6-40.7-39.6-93.2-113.6
		c-30.1-42.4-58.3-82-45.8-106.8c21.8-43.2,168.7-43,250.8,28.8c26.1,22.8,17.3,28.1,79.7,100c54.3,62.7,68.4,67.2,79.7,98.3
		c12.6,35,6.2,69.1-6.8,137.3c-12.9,67.8-19.4,102.3-47.5,135.6c-31.9,37.9-52.3,27.4-76.3,61c-34,47.6-35.7,128.5,6.8,171.2
		c22.5,22.6,63.8,40.7,91.5,27.1c15.9-7.8,29.1-26.7,30.5-28.8c8.3-12.1,11.8-23.1,13.6-28.8c12.8-41.5,16.2-74.4,22-96.6
		c10.4-39.2,32.8-61.2,45.8-78c66.3-86.1,154.2-389,32.2-501.7c-33-30.5-84.4-49.7-130.5-52.5c-57-3.5-67.7,20.5-127.1,20.3
		c-65.4-0.2-85.6-29.3-169.5-54.2c-57.6-17.1-80.8-13.1-162.7-22c-158.7-17.3-290-56.1-352.5-74.6
		c-158.5-46.8-187.4-76.7-233.9-54.2C407.4-142.2,385.1-17,396.2,67.3z"/>
</g>
</svg>
