<?xml version="1.0" encoding="utf-8"?>
<!-- Generator: Adobe Illustrator 19.1.0, SVG Export Plug-In . SVG Version: 6.00 Build 0)  -->
<svg version="1.1" id="Layer_1" xmlns="http://www.w3.org/2000/svg" xmlns:xlink="http://www.w3.org/1999/xlink" x="0px" y="0px"
	 width="539.2px" height="104.3px" viewBox="0 0 539.2 104.3" style="enable-background:new 0 0 539.2 104.3;" xml:space="preserve"
	>
<g>
	<polygon fill="#bdf030" points="199.2,49.7 207.8,19.7 216.6,21.2 203.4,63 194.9,63 187.9,36.1 180.9,63 172.4,63 159.2,21.2 168.1,19.7
		176.7,49.7 183.7,20.7 192.1,20.7 	"/>
	<polygon fill="#bdf030" points="237.2,55.4 237.2,63 219.4,63 219.4,55.4 223.6,55.4 223.6,28.3 219.4,28.3 219.4,20.7 237.2,20.7 237.2,28.3
		233,28.3 233,55.4 	"/>
	<polygon fill="#bdf030" points="272.8,54.7 272.8,63 243.7,63 243.7,55.4 247.9,55.4 247.9,28.3 243.7,28.3 243.7,20.7 261.4,20.7 261.4,28.3
		257.2,28.3 257.2,54.7 	"/>
	<path fill="#bdf030" d="M276.5,55.4h4.2v-27h-4.2v-7.6h19c12.1,0,20.9,9.5,21.3,20.4c0.4,11.3-8.8,21.8-21.3,21.8h-19V55.4z M290,54.7h5.5
		c7.5,0,12.3-6.8,12-13.5c-0.2-6.3-4.9-12.1-12-12.1H290V54.7z"/>
	<polygon fill="#bdf030" points="318.6,55.4 322.8,55.4 322.8,28.3 318.6,28.3 318.6,20.7 348.1,20.7 348.1,29 332,29 332,36.6 345.7,36.6
		345.7,44.9 332,44.9 332,54.7 348.8,54.7 348.8,63 318.6,63 	"/>
	<path fill="#bdf030" d="M353.4,55.4h4.2v-27h-4.2v-7.6h16.3c9.1,0,17.4,5.7,17.4,13.9c0,4.7-3.1,9.6-8.8,12l12.4,13.4l-7.9,4.1l-13.7-15.6h-2.3V63
		h-13.4V55.4z M369.7,40.2c3.9,0,8-2,8-5.6c0-3.5-2.8-5.6-8-5.6h-2.8v11.1H369.7z"/>
	<polygon fill="#bdf030" points="391.8,55.4 396,55.4 396,20.7 405.3,20.7 423.4,48.6 423.4,20.7 436.8,20.7 436.8,28.3 432.6,28.3 432.6,63
		423.4,63 405.3,35.1 405.3,63 391.8,63 	"/>
	<polygon fill="#bdf030" points="441,55.4 445.2,55.4 445.2,28.3 441,28.3 441,20.7 470.4,20.7 470.4,29 454.4,29 454.4,36.6 468.1,36.6
		468.1,44.9 454.4,44.9 454.4,54.7 471.2,54.7 471.2,63 441,63 	"/>
	<path fill="#bdf030" d="M491.2,27.4c-3.1,0-5.2,1.8-5.2,3.9c0,2.5,2.5,3.5,5.2,4.9l2.7,1.4c6.6,3.5,10.9,6,10.9,13c0,7.4-7,13.4-15.6,13.4
		c-5.1,0-8.7-1.1-12.6-4.4V49.1h8.8v6.1c1,0.6,2.9,1.1,4.5,1.1c3.1,0,5.5-2.3,5.5-4.9c0-2.8-2.3-4.2-5.1-5.6l-2.7-1.4
		c-6.3-3.2-11.1-5.4-11.1-13c0-6.7,7.2-11.6,14.6-11.6c5.1,0,8.9,1.6,12.1,4.6v8.6h-8.8V28C493.3,27.6,492.3,27.4,491.2,27.4"/>
	<path fill="#bdf030" d="M525.5,27.4c-3.1,0-5.2,1.8-5.2,3.9c0,2.5,2.5,3.5,5.2,4.9l2.7,1.4c6.6,3.5,10.9,6,10.9,13c0,7.4-7,13.4-15.6,13.4
		c-5.1,0-8.7-1.1-12.6-4.4V49.1h8.8v6.1c1,0.6,2.9,1.1,4.5,1.1c3.1,0,5.5-2.3,5.5-4.9c0-2.8-2.3-4.2-5.1-5.6l-2.7-1.4
		c-6.3-3.2-11.1-5.4-11.1-13c0-6.7,7.2-11.6,14.6-11.6c5.1,0,8.9,1.6,12.1,4.6v8.6h-8.8V28C527.7,27.6,526.6,27.4,525.5,27.4"/>
	<path fill="#bdf030" d="M173.3,69.5h10.2l10.3,29.9h-8.1l-1.5-5.4h-11.6l-1.5,5.4H163L173.3,69.5z M182.5,88.2l-3.1-9.9c-0.1-0.5-0.5-1.8-1-4
		c-0.5,2.2-0.9,3.6-1,4l-3,9.9H182.5z"/>
	<path fill="#bdf030" d="M207,69.5h6.2h1c5.6,0,10,0.1,14,2.8c3.8,2.6,5.8,6.8,5.8,12.1c0,5.3-2,9.4-5.8,12.1c-3.7,2.6-7.9,2.8-12.8,2.8h-2.1H207
		V69.5z M216.5,92.7c6.2,0,9.2-2.4,9.2-8.2c0-5.9-3.1-8.3-9.2-8.3h-1.4v16.5H216.5z"/>
	<path fill="#bdf030" d="M244.7,69.5h8.7l6,16.7c0.1,0.3,0.5,1.7,1,4c0.5-2.3,0.9-3.7,1-4l5.9-16.7h8.7l-12.5,29.9h-6.2L244.7,69.5z"/>
	<polygon fill="#bdf030" points="288.7,69.5 307.1,69.5 307.1,76.1 296.7,76.1 296.7,81.3 306.5,81.3 306.5,87.7 296.7,87.7 296.7,92.7 307.1,92.7
		307.1,99.4 288.7,99.4 	"/>
	<path fill="#bdf030" d="M322.8,69.5h7.9L342,84.9c0.3,0.4,1.3,2.1,2.7,5.3c-0.3-2.3-0.5-4.3-0.5-5.9V69.5h7.8v29.9h-7.8L332.9,84
		c-0.3-0.4-1.3-2.1-2.7-5.2c0.3,2.3,0.5,4.3,0.5,5.9v14.8h-7.9V69.5z"/>
	<polygon fill="#bdf030" points="373.1,76.6 366.5,76.6 366.5,69.5 387.9,69.5 387.9,76.6 381.3,76.6 381.3,99.4 373.1,99.4 	"/>
	<path fill="#bdf030" d="M410.2,69.5V82v3.7c0,5.3,1,7.6,5.2,7.6c5,0,5.2-3.1,5.2-9.5V82V69.5h8.1v12.7v5.1c0,9-3.8,12.9-13.3,12.9
		c-5.1,0-8.6-1.2-10.7-3.6c-2.4-2.7-2.6-6.2-2.6-10.9v-3.4V69.5H410.2z"/>
	<path fill="#bdf030" d="M445.3,69.5h8.5h0.5c4.1,0,7.3,0,9.9,2c2.2,1.7,3.3,4.2,3.3,7.3c0,4.6-2.3,7.6-6.7,8.5l8.2,12h-9.2l-6.9-11.7v11.7h-7.6
		V69.5z M454.4,83.6c3.4,0,5.1-1.1,5.1-3.7c0-3.1-1.5-4.1-4.9-4.1h-1.6v7.9H454.4z"/>
	<polygon fill="#bdf030" points="482.4,69.5 500.7,69.5 500.7,76.1 490.4,76.1 490.4,81.3 500.2,81.3 500.2,87.7 490.4,87.7 490.4,92.7 500.7,92.7
		500.7,99.4 482.4,99.4 	"/>
	<path fill="#bdf030" d="M525,93.8c2.3,0,3.7-1.3,3.7-3.1c0-2.4-1.6-3.1-5-4c-5.4-1.4-8-3.6-8-8.3c0-5.6,4.1-9.7,10.3-9.7c3.3,0,6.3,0.9,8.9,2.7
		l-2.5,5.9c-1.9-1.6-3.9-2.4-5.7-2.4c-2,0-3.3,1.1-3.3,2.5c0,2.1,2,2.6,4.8,3.3c5.3,1.4,8.2,3.4,8.2,8.9c0,6.2-4.4,10.5-11.5,10.5
		c-4.2,0-7.4-1.3-10.6-4.4l3.7-6.1C520.2,92.5,522.6,93.8,525,93.8"/>
</g>
<g>
	<path fill="#bdf030" d="M0,64.9c0,0,13.5-5.6,13.9-10.7c-5.5,4.6-11.8,3.9-11.8,3.9l-2.5-5.9c0,0,14.2-4.6,14.2-10c-5,4.1-11,4.6-11,4.6L0,41
		c0,0,13.9-5.3,18.2-12.1c4.1,6.8,19.8,12.5,19.8,12.5l-2.7,5.7c0,0-10.2-2.1-12.5-5c0,6.1,15.7,10.3,15.7,10.3L35.6,58
		c0,0-9.4-0.2-12.6-3.9c-0.2,5.3,15.3,9.6,15.3,9.6l-3,7.8c0,0-9.8-3-12.5-6.6c0,4.3,0.2,18.3,0.2,18.3l-9.1-0.2V65.4
		c-4.6,4.5-11.2,6.1-11.2,6.1L0,64.9z"/>
	<path fill="#bdf030" d="M101.2,95.8c-4.5,3.4-16.1,6.8-24.4-1.8c-7.1,8-19.4,7.1-23.3,0.3c-6.1,7.1-18.1,7.6-24.3,1.2c-6.8,7.4-24.6,4.9-21.8-12.3
		c4.8,8.6,16.3,10.1,22.1-0.3c6.3,11.1,16.7,11.8,24.3,0.3c4.6,10.4,17.5,11.4,24,0.3c4.6,10.4,17.8,10.4,22.4,0
		c4.9,12.3,18.1,6.5,20.6-0.6C124.1,89.2,116.1,106.9,101.2,95.8"/>
	<path fill="#bdf030" d="M105.2,22.3l-14,22.3c0,0-2.4-5.1-4-8.1c16.9-10.1,6.6-34.3-12.8-25.1c-1.9-3.2-7-11.3-7-11.3L38.7,50l5.9,3l22.8-39.7
		L91,57.4l13.6-20.6l37.7,67.5l7.9-0.2L105.2,22.3z M76.5,15.5c4.9-2.9,10.7-2.2,13.6,2.8c2.9,4.9,0.6,10.1-4.3,13L76.5,15.5z"/>
</g>
</svg>
