<?xml version="1.0" encoding="utf-8"?>
<!-- Generator: Adobe Illustrator 20.1.0, SVG Export Plug-In . SVG Version: 6.00 Build 0)  -->
<!DOCTYPE svg PUBLIC "-//W3C//DTD SVG 1.1//EN" "http://www.w3.org/Graphics/SVG/1.1/DTD/svg11.dtd">
<svg version="1.1" id="Isolation_Mode" xmlns="http://www.w3.org/2000/svg" xmlns:xlink="http://www.w3.org/1999/xlink" x="0px"
	 y="0px" viewBox="0 0 149 72" enable-background="new 0 0 149 72" xml:space="preserve">
<g>
	<path fill="#FFFFFF" d="M44,53.3c-2.2,0-4.1-0.4-5.7-1.1c-3-1.4-4.9-4-5.7-7.7l-0.2-3.4c-0.2-2.5-0.4-4.7-0.7-6.7
		c-0.3-1.9-0.9-3.6-1.6-4.9c-1.7-2.8-4.4-4.2-8.2-4.2h-4.1v25h7.8v2H0v-2h7.8V2H0V0h27.6c5.8,0,10.1,0.9,12.9,2.8
		c2.9,1.8,4.4,4.9,4.4,9.1c0,3.4-1.4,6.2-4.1,8.3c-2.8,2.1-6.9,3.6-12.5,4.5c6.5,1.4,10.7,3.7,12.4,7.1c0.9,1.7,1.5,3.6,1.9,5.6
		c0.4,2,0.6,4.2,0.7,6.6l0.1,3.8c0.3,1.2,0.9,2,1.9,2.5c0.5,0.3,1.3,0.4,2.5,0.4c0.8,0,1.9-0.1,3.3-0.2v1.8
		C48.5,53,46.1,53.3,44,53.3 M32.3,4.5C30.9,2.8,28.6,2,25.4,2h-7.7v21.5h6.7c3.4,0,5.9-0.9,7.4-2.6c1.6-1.7,2.4-4.4,2.4-8.1
		C34.2,9,33.5,6.2,32.3,4.5"/>
	<path fill="#FFFFFF" d="M97.9,52.3H53.4v-2h7.8V2h-7.8V0h43.2l0.5,14.1h-2.2c-1.2-5-2.8-8.3-5-9.8C87.7,2.7,84.5,2,80.1,2h-9v22.5
		h2.1c4,0,6.6-0.9,7.8-2.8c1.3-1.9,2-4.2,2-6.7h2.2v21.9H83c0-2.8-0.6-5.2-1.9-7.2c-1.3-2.1-3.9-3.1-7.9-3.1h-2.1v24h10.5
		c5.1,0,8.6-1.2,10.6-3.7c2-2.5,3.4-6.2,4.2-11.2h2.3L97.9,52.3z"/>
	<path fill="#FFFFFF" d="M148.1,52.3h-43.4v-2h7.8V2h-7.8V0h25.9v2h-8.1v48.4h10.1c4.8,0,8.2-1.4,10.4-4.2c2.2-2.7,3.4-6.6,3.6-11.5
		h2.4L148.1,52.3z"/>
	<path fill="#FFFFFF" d="M8.1,60.1l5.2,11.3h-1.7l-1.6-3.6H5.3l-1.7,3.6H2l5.2-11.3H8.1z M6,66.4h3.3l-1.6-3.6L6,66.4z"/>
	<path fill="#FFFFFF" d="M25.6,68.7v1.7c-0.3,0.2-0.7,0.4-1,0.5c-0.3,0.1-0.6,0.2-1,0.4c-0.4,0.1-0.7,0.2-1,0.2
		c-0.3,0-0.6,0.1-1,0.1c-1.8,0-3.2-0.5-4.3-1.6c-1.2-1.1-1.7-2.4-1.7-4.1c0-1.6,0.6-3,1.7-4.1c0.6-0.6,1.2-1,2-1.2
		c0.7-0.3,1.5-0.4,2.3-0.4c0.6,0,1.2,0.1,1.9,0.2c0.3,0.1,0.7,0.2,1,0.3c0.3,0.1,0.7,0.3,1,0.5v1.8c-0.5-0.3-0.9-0.5-1.3-0.7
		c-0.3-0.1-0.6-0.3-0.9-0.4c-0.6-0.2-1.2-0.3-1.8-0.3c-1.2,0-2.2,0.4-3,1.2c-0.8,0.8-1.2,1.8-1.2,3c0,1.3,0.4,2.3,1.2,3
		c0.8,0.8,1.8,1.2,3.1,1.2c0.7,0,1.3-0.1,1.9-0.3c0.2-0.1,0.3-0.1,0.5-0.2c0.1-0.1,0.3-0.1,0.5-0.2c0.2-0.1,0.4-0.2,0.6-0.3
		C25.1,68.9,25.4,68.8,25.6,68.7"/>
	<path fill="#FFFFFF" d="M39.1,61.7c1.1,1.1,1.7,2.5,1.7,4.1c0,1.6-0.6,3-1.7,4.1c-1.1,1.1-2.5,1.7-4.2,1.7c-1.7,0-3.1-0.5-4.2-1.6
		c-1.1-1.1-1.7-2.5-1.7-4.1c0-1.6,0.6-3,1.7-4.1c1.1-1.1,2.5-1.7,4.2-1.7C36.6,60.1,38,60.6,39.1,61.7 M37.9,68.8
		c0.8-0.8,1.3-1.8,1.3-3c0-1.2-0.4-2.1-1.3-3c-0.8-0.8-1.8-1.2-3-1.2c-1.2,0-2.2,0.4-3,1.2c-0.8,0.8-1.2,1.8-1.2,3
		c0,1.2,0.4,2.2,1.2,3c0.8,0.8,1.8,1.2,3,1.2C36.1,70,37.1,69.6,37.9,68.8"/>
	<path fill="#FFFFFF" d="M54.1,60.2v6.3c0,0.7-0.1,1.4-0.3,2c-0.2,0.6-0.5,1.1-1,1.6c-0.9,1-2,1.4-3.4,1.4c-1.4,0-2.5-0.5-3.4-1.4
		c-0.9-0.9-1.3-2.1-1.3-3.6v-6.4h1.6v6.3c0,0.6,0.1,1.1,0.2,1.5c0.1,0.4,0.4,0.8,0.7,1.1c0.6,0.6,1.3,0.9,2.3,0.9c1,0,1.7-0.3,2.3-1
		c0.3-0.3,0.5-0.7,0.6-1.1c0.1-0.4,0.2-0.9,0.2-1.5v-6.2H54.1z"/>
	<path fill="#FFFFFF" d="M63.5,66.3c0.4,0.5,0.7,1.2,0.7,2.1c0,0.9-0.3,1.6-1,2.2c-0.7,0.6-1.4,0.9-2.4,0.9c-0.6,0-1.2-0.1-1.8-0.4
		c-0.2-0.1-0.5-0.2-0.7-0.3c-0.2-0.1-0.4-0.3-0.6-0.4v-1.9c0.3,0.2,0.5,0.4,0.7,0.5c0.2,0.1,0.4,0.3,0.5,0.4
		c0.2,0.1,0.3,0.2,0.4,0.2c0.1,0.1,0.2,0.1,0.3,0.2c0.4,0.2,0.7,0.2,1,0.2c0.5,0,1-0.2,1.3-0.5c0.3-0.3,0.5-0.7,0.5-1.2
		c0-0.3,0-0.5-0.1-0.7c-0.1-0.2-0.2-0.3-0.3-0.5c-0.2-0.1-0.4-0.3-0.7-0.4c-0.3-0.1-0.7-0.3-1.1-0.4c-0.9-0.3-1.6-0.7-2-1.1
		c-0.2-0.3-0.4-0.6-0.5-0.9c-0.1-0.3-0.2-0.7-0.2-1.1c0-0.9,0.3-1.6,1-2.2c0.7-0.6,1.4-0.9,2.3-0.9c0.7,0,1.2,0.1,1.7,0.3
		c0.2,0.1,0.5,0.2,0.6,0.3c0.2,0.1,0.3,0.2,0.5,0.3l0,1.8c-0.2-0.1-0.4-0.2-0.5-0.3c-0.1-0.1-0.3-0.2-0.4-0.2
		c-0.1-0.1-0.2-0.1-0.3-0.2c-0.1,0-0.2-0.1-0.3-0.1c-0.3-0.2-0.7-0.3-1.2-0.3c-0.5,0-0.9,0.2-1.3,0.5c-0.3,0.3-0.5,0.7-0.5,1.1
		c0,0.2,0,0.4,0.1,0.6c0.1,0.2,0.2,0.3,0.3,0.4c0.3,0.3,0.8,0.5,1.6,0.8c0.5,0.2,1,0.4,1.4,0.6C63,65.8,63.3,66,63.5,66.3"/>
	<polygon fill="#FFFFFF" points="76,60.2 76,61.7 72.1,61.7 72.1,71.4 70.5,71.4 70.5,61.7 66.6,61.7 66.6,60.2 	"/>
	<rect x="78.8" y="60.2" fill="#FFFFFF" width="1.6" height="11.2"/>
	<path fill="#FFFFFF" d="M93.7,68.7v1.7c-0.3,0.2-0.7,0.4-1,0.5c-0.3,0.1-0.6,0.2-1,0.4c-0.4,0.1-0.7,0.2-1,0.2
		c-0.3,0-0.6,0.1-1,0.1c-1.8,0-3.2-0.5-4.3-1.6c-1.2-1.1-1.7-2.4-1.7-4.1c0-1.6,0.6-3,1.7-4.1c0.6-0.6,1.2-1,2-1.2
		c0.7-0.3,1.5-0.4,2.3-0.4c0.6,0,1.2,0.1,1.9,0.2c0.3,0.1,0.7,0.2,1,0.3c0.3,0.1,0.7,0.3,1,0.5v1.8c-0.5-0.3-0.9-0.5-1.3-0.7
		c-0.3-0.1-0.6-0.3-0.9-0.4c-0.6-0.2-1.2-0.3-1.8-0.3c-1.2,0-2.2,0.4-3,1.2c-0.8,0.8-1.2,1.8-1.2,3c0,1.3,0.4,2.3,1.2,3
		c0.8,0.8,1.8,1.2,3.1,1.2c0.7,0,1.3-0.1,1.9-0.3c0.2-0.1,0.3-0.1,0.5-0.2c0.1-0.1,0.3-0.1,0.5-0.2c0.2-0.1,0.4-0.2,0.6-0.3
		C93.2,68.9,93.5,68.8,93.7,68.7"/>
	<path fill="#FFFFFF" d="M102.6,66.3c0.4,0.5,0.7,1.2,0.7,2.1c0,0.9-0.3,1.6-1,2.2c-0.7,0.6-1.4,0.9-2.4,0.9c-0.6,0-1.2-0.1-1.8-0.4
		c-0.2-0.1-0.5-0.2-0.7-0.3c-0.2-0.1-0.4-0.3-0.6-0.4v-1.9c0.3,0.2,0.5,0.4,0.7,0.5c0.2,0.1,0.4,0.3,0.5,0.4
		c0.2,0.1,0.3,0.2,0.4,0.2c0.1,0.1,0.2,0.1,0.3,0.2c0.4,0.2,0.7,0.2,1,0.2c0.5,0,1-0.2,1.3-0.5c0.3-0.3,0.5-0.7,0.5-1.2
		c0-0.3,0-0.5-0.1-0.7c-0.1-0.2-0.2-0.3-0.3-0.5c-0.2-0.1-0.4-0.3-0.7-0.4c-0.3-0.1-0.7-0.3-1.1-0.4c-0.9-0.3-1.6-0.7-2-1.1
		c-0.2-0.3-0.4-0.6-0.5-0.9c-0.1-0.3-0.2-0.7-0.2-1.1c0-0.9,0.3-1.6,1-2.2c0.7-0.6,1.4-0.9,2.3-0.9c0.7,0,1.2,0.1,1.7,0.3
		c0.2,0.1,0.5,0.2,0.6,0.3c0.2,0.1,0.3,0.2,0.5,0.3l0,1.8c-0.2-0.1-0.4-0.2-0.5-0.3c-0.1-0.1-0.3-0.2-0.4-0.2
		c-0.1-0.1-0.2-0.1-0.3-0.2c-0.1,0-0.2-0.1-0.3-0.1c-0.3-0.2-0.7-0.3-1.2-0.3c-0.5,0-0.9,0.2-1.3,0.5c-0.3,0.3-0.5,0.7-0.5,1.1
		c0,0.2,0,0.4,0.1,0.6c0.1,0.2,0.2,0.3,0.3,0.4c0.3,0.3,0.8,0.5,1.6,0.8c0.5,0.2,1,0.4,1.4,0.6C102.1,65.8,102.4,66,102.6,66.3"/>
	<polygon fill="#FFFFFF" points="121.5,70 121.5,71.4 114.8,71.4 114.8,60.2 116.4,60.2 116.4,70 	"/>
	<polygon fill="#FFFFFF" points="131.2,60.2 131.2,61.7 127.3,61.7 127.3,71.4 125.7,71.4 125.7,61.7 121.8,61.7 121.8,60.2 	"/>
	<path fill="#FFFFFF" d="M142.9,61.7c0.6,0.5,1,1.1,1.2,1.8c0.3,0.7,0.4,1.5,0.4,2.3c0,1.6-0.5,3-1.6,4c-0.5,0.5-1.2,0.9-1.9,1.2
		s-1.5,0.4-2.4,0.4h-4.2V60.2h4.1c0.9,0,1.7,0.1,2.4,0.4C141.7,60.8,142.3,61.2,142.9,61.7 M141.7,68.8c0.8-0.8,1.2-1.8,1.2-3
		c0-1.3-0.4-2.3-1.2-3c-0.8-0.8-1.9-1.1-3.2-1.1H136V70h2.4C139.8,70,140.9,69.6,141.7,68.8"/>
	<path fill="#FFFFFF" d="M146.8,70.6c0,0.6-0.4,1-1,1c-0.6,0-1-0.4-1-1c0-0.6,0.4-1,1-1C146.3,69.6,146.8,70.1,146.8,70.6"/>
</g>
</svg>
