<svg xmlns="http://www.w3.org/2000/svg" width="539.2" height="104.3" viewBox="0 0 539.2 104.3"><path d="M199.2 49.7l8.6-30 8.8 1.5L203.4 63h-8.5l-7-26.9-7 26.9h-8.5l-13.2-41.8 8.9-1.5 8.6 30 7-29h8.4zM237.2 55.4V63h-17.8v-7.6h4.2V28.3h-4.2v-7.6h17.8v7.6H233v27.1zM272.8 54.7V63h-29.1v-7.6h4.2V28.3h-4.2v-7.6h17.7v7.6h-4.2v26.4zM276.5 55.4h4.2v-27h-4.2v-7.6h19c12.1 0 20.9 9.5 21.3 20.4.4 11.3-8.8 21.8-21.3 21.8h-19v-7.6zm13.5-.7h5.5c7.5 0 12.3-6.8 12-13.5-.2-6.3-4.9-12.1-12-12.1H290v25.6zM318.6 55.4h4.2V28.3h-4.2v-7.6h29.5V29H332v7.6h13.7v8.3H332v9.8h16.8V63h-30.2zM353.4 55.4h4.2v-27h-4.2v-7.6h16.3c9.1 0 17.4 5.7 17.4 13.9 0 4.7-3.1 9.6-8.8 12l12.4 13.4-7.9 4.1-13.7-15.6h-2.3V63h-13.4v-7.6zm16.3-15.2c3.9 0 8-2 8-5.6 0-3.5-2.8-5.6-8-5.6h-2.8v11.1h2.8zM391.8 55.4h4.2V20.7h9.3l18.1 27.9V20.7h13.4v7.6h-4.2V63h-9.2l-18.1-27.9V63h-13.5zM441 55.4h4.2V28.3H441v-7.6h29.4V29h-16v7.6h13.7v8.3h-13.7v9.8h16.8V63H441zM491.2 27.4c-3.1 0-5.2 1.8-5.2 3.9 0 2.5 2.5 3.5 5.2 4.9l2.7 1.4c6.6 3.5 10.9 6 10.9 13 0 7.4-7 13.4-15.6 13.4-5.1 0-8.7-1.1-12.6-4.4V49.1h8.8v6.1c1 .6 2.9 1.1 4.5 1.1 3.1 0 5.5-2.3 5.5-4.9 0-2.8-2.3-4.2-5.1-5.6l-2.7-1.4c-6.3-3.2-11.1-5.4-11.1-13 0-6.7 7.2-11.6 14.6-11.6 5.1 0 8.9 1.6 12.1 4.6V33h-8.8v-5c-1.1-.4-2.1-.6-3.2-.6M525.5 27.4c-3.1 0-5.2 1.8-5.2 3.9 0 2.5 2.5 3.5 5.2 4.9l2.7 1.4c6.6 3.5 10.9 6 10.9 13 0 7.4-7 13.4-15.6 13.4-5.1 0-8.7-1.1-12.6-4.4V49.1h8.8v6.1c1 .6 2.9 1.1 4.5 1.1 3.1 0 5.5-2.3 5.5-4.9 0-2.8-2.3-4.2-5.1-5.6l-2.7-1.4c-6.3-3.2-11.1-5.4-11.1-13 0-6.7 7.2-11.6 14.6-11.6 5.1 0 8.9 1.6 12.1 4.6V33h-8.8v-5c-1-.4-2.1-.6-3.2-.6M173.3 69.5h10.2l10.3 29.9h-8.1l-1.5-5.4h-11.6l-1.5 5.4H163l10.3-29.9zm9.2 18.7l-3.1-9.9c-.1-.5-.5-1.8-1-4-.5 2.2-.9 3.6-1 4l-3 9.9h8.1zM207 69.5h7.2c5.6 0 10 .1 14 2.8 3.8 2.6 5.8 6.8 5.8 12.1s-2 9.4-5.8 12.1c-3.7 2.6-7.9 2.8-12.8 2.8H207V69.5zm9.5 23.2c6.2 0 9.2-2.4 9.2-8.2 0-5.9-3.1-8.3-9.2-8.3h-1.4v16.5h1.4zM244.7 69.5h8.7l6 16.7c.1.3.5 1.7 1 4 .5-2.3.9-3.7 1-4l5.9-16.7h8.7l-12.5 29.9h-6.2l-12.6-29.9zM288.7 69.5h18.4v6.6h-10.4v5.2h9.8v6.4h-9.8v5h10.4v6.7h-18.4zM322.8 69.5h7.9L342 84.9c.3.4 1.3 2.1 2.7 5.3-.3-2.3-.5-4.3-.5-5.9V69.5h7.8v29.9h-7.8L332.9 84c-.3-.4-1.3-2.1-2.7-5.2.3 2.3.5 4.3.5 5.9v14.8h-7.9v-30zM373.1 76.6h-6.6v-7.1h21.4v7.1h-6.6v22.8h-8.2zM410.2 69.5v16.2c0 5.3 1 7.6 5.2 7.6 5 0 5.2-3.1 5.2-9.5V69.5h8.1V87.3c0 9-3.8 12.9-13.3 12.9-5.1 0-8.6-1.2-10.7-3.6-2.4-2.7-2.6-6.2-2.6-10.9V69.5h8.1zM445.3 69.5h9c4.1 0 7.3 0 9.9 2 2.2 1.7 3.3 4.2 3.3 7.3 0 4.6-2.3 7.6-6.7 8.5l8.2 12h-9.2l-6.9-11.7v11.7h-7.6V69.5zm9.1 14.1c3.4 0 5.1-1.1 5.1-3.7 0-3.1-1.5-4.1-4.9-4.1H453v7.9h1.4zM482.4 69.5h18.3v6.6h-10.3v5.2h9.8v6.4h-9.8v5h10.3v6.7h-18.3zM525 93.8c2.3 0 3.7-1.3 3.7-3.1 0-2.4-1.6-3.1-5-4-5.4-1.4-8-3.6-8-8.3 0-5.6 4.1-9.7 10.3-9.7 3.3 0 6.3.9 8.9 2.7l-2.5 5.9c-1.9-1.6-3.9-2.4-5.7-2.4-2 0-3.3 1.1-3.3 2.5 0 2.1 2 2.6 4.8 3.3 5.3 1.4 8.2 3.4 8.2 8.9 0 6.2-4.4 10.5-11.5 10.5-4.2 0-7.4-1.3-10.6-4.4l3.7-6.1c2.2 2.9 4.6 4.2 7 4.2"/><g><path d="M0 64.9s13.5-5.6 13.9-10.7c-5.5 4.6-11.8 3.9-11.8 3.9l-2.5-5.9s14.2-4.6 14.2-10c-5 4.1-11 4.6-11 4.6L0 41s13.9-5.3 18.2-12.1C22.3 35.7 38 41.4 38 41.4l-2.7 5.7s-10.2-2.1-12.5-5c0 6.1 15.7 10.3 15.7 10.3L35.6 58s-9.4-.2-12.6-3.9c-.2 5.3 15.3 9.6 15.3 9.6l-3 7.8s-9.8-3-12.5-6.6c0 4.3.2 18.3.2 18.3l-9.1-.2V65.4c-4.6 4.5-11.2 6.1-11.2 6.1L0 64.9z"/><path d="M101.2 95.8c-4.5 3.4-16.1 6.8-24.4-1.8-7.1 8-19.4 7.1-23.3.3-6.1 7.1-18.1 7.6-24.3 1.2-6.8 7.4-24.6 4.9-21.8-12.3 4.8 8.6 16.3 10.1 22.1-.3 6.3 11.1 16.7 11.8 24.3.3 4.6 10.4 17.5 11.4 24 .3 4.6 10.4 17.8 10.4 22.4 0 4.9 12.3 18.1 6.5 20.6-.6 3.3 6.3-4.7 24-19.6 12.9"/><path d="M105.2 22.3l-14 22.3s-2.4-5.1-4-8.1c16.9-10.1 6.6-34.3-12.8-25.1-1.9-3.2-7-11.3-7-11.3L38.7 50l5.9 3 22.8-39.7L91 57.4l13.6-20.6 37.7 67.5 7.9-.2-45-81.8zm-28.7-6.8c4.9-2.9 10.7-2.2 13.6 2.8 2.9 4.9.6 10.1-4.3 13l-9.3-15.8z"/></g></svg>