<svg xmlns="http://www.w3.org/2000/svg" viewBox="0 0 149 72"><g fill="#FFF"><path d="M44 53.3c-2.2 0-4.1-.4-5.7-1.1-3-1.4-4.9-4-5.7-7.7l-.2-3.4c-.2-2.5-.4-4.7-.7-6.7-.3-1.9-.9-3.6-1.6-4.9-1.7-2.8-4.4-4.2-8.2-4.2h-4.1v25h7.8v2H0v-2h7.8V2H0V0h27.6c5.8 0 10.1.9 12.9 2.8 2.9 1.8 4.4 4.9 4.4 9.1 0 3.4-1.4 6.2-4.1 8.3-2.8 2.1-6.9 3.6-12.5 4.5 6.5 1.4 10.7 3.7 12.4 7.1.9 1.7 1.5 3.6 1.9 5.6.4 2 .6 4.2.7 6.6l.1 3.8c.3 1.2.9 2 1.9 2.5.5.3 1.3.4 2.5.4.8 0 1.9-.1 3.3-.2v1.8c-2.6.7-5 1-7.1 1M32.3 4.5C30.9 2.8 28.6 2 25.4 2h-7.7v21.5h6.7c3.4 0 5.9-.9 7.4-2.6 1.6-1.7 2.4-4.4 2.4-8.1 0-3.8-.7-6.6-1.9-8.3M97.9 52.3H53.4v-2h7.8V2h-7.8V0h43.2l.5 14.1h-2.2c-1.2-5-2.8-8.3-5-9.8C87.7 2.7 84.5 2 80.1 2h-9v22.5h2.1c4 0 6.6-.9 7.8-2.8 1.3-1.9 2-4.2 2-6.7h2.2v21.9H83c0-2.8-.6-5.2-1.9-7.2-1.3-2.1-3.9-3.1-7.9-3.1h-2.1v24h10.5c5.1 0 8.6-1.2 10.6-3.7s3.4-6.2 4.2-11.2h2.3l-.8 16.6zM148.1 52.3h-43.4v-2h7.8V2h-7.8V0h25.9v2h-8.1v48.4h10.1c4.8 0 8.2-1.4 10.4-4.2 2.2-2.7 3.4-6.6 3.6-11.5h2.4l-.9 17.6zM8.1 60.1l5.2 11.3h-1.7L10 67.8H5.3l-1.7 3.6H2l5.2-11.3h.9zM6 66.4h3.3l-1.6-3.6L6 66.4zM25.6 68.7v1.7c-.3.2-.7.4-1 .5-.3.1-.6.2-1 .4-.4.1-.7.2-1 .2-.3 0-.6.1-1 .1-1.8 0-3.2-.5-4.3-1.6-1.2-1.1-1.7-2.4-1.7-4.1 0-1.6.6-3 1.7-4.1.6-.6 1.2-1 2-1.2.7-.3 1.5-.4 2.3-.4.6 0 1.2.1 1.9.2.3.1.7.2 1 .3.3.1.7.3 1 .5V63c-.5-.3-.9-.5-1.3-.7-.3-.1-.6-.3-.9-.4-.6-.2-1.2-.3-1.8-.3-1.2 0-2.2.4-3 1.2-.8.8-1.2 1.8-1.2 3 0 1.3.4 2.3 1.2 3 .8.8 1.8 1.2 3.1 1.2.7 0 1.3-.1 1.9-.3.2-.1.3-.1.5-.2.1-.1.3-.1.5-.2l.6-.3c0-.1.3-.2.5-.3M39.1 61.7c1.1 1.1 1.7 2.5 1.7 4.1 0 1.6-.6 3-1.7 4.1-1.1 1.1-2.5 1.7-4.2 1.7-1.7 0-3.1-.5-4.2-1.6S29 67.5 29 65.9c0-1.6.6-3 1.7-4.1 1.1-1.1 2.5-1.7 4.2-1.7 1.7 0 3.1.5 4.2 1.6m-1.2 7.1c.8-.8 1.3-1.8 1.3-3s-.4-2.1-1.3-3c-.8-.8-1.8-1.2-3-1.2s-2.2.4-3 1.2c-.8.8-1.2 1.8-1.2 3s.4 2.2 1.2 3c.8.8 1.8 1.2 3 1.2s2.2-.4 3-1.2M54.1 60.2v6.3c0 .7-.1 1.4-.3 2-.2.6-.5 1.1-1 1.6-.9 1-2 1.4-3.4 1.4s-2.5-.5-3.4-1.4c-.9-.9-1.3-2.1-1.3-3.6v-6.4h1.6v6.3c0 .6.1 1.1.2 1.5.1.4.4.8.7 1.1.6.6 1.3.9 2.3.9 1 0 1.7-.3 2.3-1 .3-.3.5-.7.6-1.1.1-.4.2-.9.2-1.5v-6.2h1.5zM63.5 66.3c.4.5.7 1.2.7 2.1 0 .9-.3 1.6-1 2.2-.7.6-1.4.9-2.4.9-.6 0-1.2-.1-1.8-.4-.2-.1-.5-.2-.7-.3-.2-.1-.4-.3-.6-.4v-1.9c.3.2.5.4.7.5.2.1.4.3.5.4.2.1.3.2.4.2.1.1.2.1.3.2.4.2.7.2 1 .2.5 0 1-.2 1.3-.5.3-.3.5-.7.5-1.2 0-.3 0-.5-.1-.7-.1-.2-.2-.3-.3-.5-.2-.1-.4-.3-.7-.4-.3-.1-.7-.3-1.1-.4-.9-.3-1.6-.7-2-1.1-.2-.3-.4-.6-.5-.9-.1-.3-.2-.7-.2-1.1 0-.9.3-1.6 1-2.2.7-.6 1.4-.9 2.3-.9.7 0 1.2.1 1.7.3.2.1.5.2.6.3.2.1.3.2.5.3v1.8c-.2-.1-.4-.2-.5-.3-.1-.1-.3-.2-.4-.2-.1-.1-.2-.1-.3-.2-.1 0-.2-.1-.3-.1-.3-.2-.7-.3-1.2-.3s-.9.2-1.3.5c-.3.3-.5.7-.5 1.1 0 .2 0 .4.1.6.1.2.2.3.3.4.3.3.8.5 1.6.8.5.2 1 .4 1.4.6.5.1.8.3 1 .6M76 60.2v1.5h-3.9v9.7h-1.6v-9.7h-3.9v-1.5zM78.8 60.2h1.6v11.2h-1.6zM93.7 68.7v1.7c-.3.2-.7.4-1 .5-.3.1-.6.2-1 .4-.4.1-.7.2-1 .2-.3 0-.6.1-1 .1-1.8 0-3.2-.5-4.3-1.6-1.2-1.1-1.7-2.4-1.7-4.1 0-1.6.6-3 1.7-4.1.6-.6 1.2-1 2-1.2.7-.3 1.5-.4 2.3-.4.6 0 1.2.1 1.9.2.3.1.7.2 1 .3.3.1.7.3 1 .5V63c-.5-.3-.9-.5-1.3-.7-.3-.1-.6-.3-.9-.4-.6-.2-1.2-.3-1.8-.3-1.2 0-2.2.4-3 1.2-.8.8-1.2 1.8-1.2 3 0 1.3.4 2.3 1.2 3 .8.8 1.8 1.2 3.1 1.2.7 0 1.3-.1 1.9-.3.2-.1.3-.1.5-.2.1-.1.3-.1.5-.2l.6-.3c0-.1.3-.2.5-.3M102.6 66.3c.4.5.7 1.2.7 2.1 0 .9-.3 1.6-1 2.2-.7.6-1.4.9-2.4.9-.6 0-1.2-.1-1.8-.4-.2-.1-.5-.2-.7-.3-.2-.1-.4-.3-.6-.4v-1.9c.3.2.5.4.7.5.2.1.4.3.5.4.2.1.3.2.4.2.1.1.2.1.3.2.4.2.7.2 1 .2.5 0 1-.2 1.3-.5.3-.3.5-.7.5-1.2 0-.3 0-.5-.1-.7-.1-.2-.2-.3-.3-.5-.2-.1-.4-.3-.7-.4-.3-.1-.7-.3-1.1-.4-.9-.3-1.6-.7-2-1.1-.2-.3-.4-.6-.5-.9-.1-.3-.2-.7-.2-1.1 0-.9.3-1.6 1-2.2.7-.6 1.4-.9 2.3-.9.7 0 1.2.1 1.7.3.2.1.5.2.6.3.2.1.3.2.5.3v1.8c-.2-.1-.4-.2-.5-.3-.1-.1-.3-.2-.4-.2-.1-.1-.2-.1-.3-.2-.1 0-.2-.1-.3-.1-.3-.2-.7-.3-1.2-.3s-.9.2-1.3.5c-.3.3-.5.7-.5 1.1 0 .2 0 .4.1.6.1.2.2.3.3.4.3.3.8.5 1.6.8.5.2 1 .4 1.4.6.5.1.8.3 1 .6M121.5 70v1.4h-6.7V60.2h1.6V70zM131.2 60.2v1.5h-3.9v9.7h-1.6v-9.7h-3.9v-1.5zM142.9 61.7c.6.5 1 1.1 1.2 1.8.3.7.4 1.5.4 2.3 0 1.6-.5 3-1.6 4-.5.5-1.2.9-1.9 1.2s-1.5.4-2.4.4h-4.2V60.2h4.1c.9 0 1.7.1 2.4.4.8.2 1.4.6 2 1.1m-1.2 7.1c.8-.8 1.2-1.8 1.2-3 0-1.3-.4-2.3-1.2-3-.8-.8-1.9-1.1-3.2-1.1H136V70h2.4c1.4 0 2.5-.4 3.3-1.2M146.8 70.6c0 .6-.4 1-1 1s-1-.4-1-1 .4-1 1-1c.5 0 1 .5 1 1"/></g></svg>