<svg xmlns="http://www.w3.org/2000/svg" viewBox="0 0 1764.4 1116.7"><style>.st0{fill:#ef4136}.st1{fill:#1c75bc}</style><g id="creatures"><path id="moose" class="st0" d="M406.8 516.7c-35.5 16.9-78.6 56.1-76.7 98.3 1.3 28.9 22.7 35.1 28.3 76.7 2.2 16.1 6.6 48.4-10 70-30 39-95.7-.3-145 38.3-31.1 24.4-48.1 73.7-33.3 103.3 29.6 59.4 196.1 56.3 236.7-8.3 14.4-22.9 8.1-45.7 31.7-65 22.2-18.2 59.7-24 81.7-8.3 22.7 16.2 10.9 42.5 28.3 71.7 25.1 42 100.9 73.7 161.7 41.7 69.2-36.5 81.5-136 50-171.7-34.9-39.6-115.6 8.3-150-35-21.4-27 3.6-53.5-16.7-120-7.8-25.5-18.7-61.5-51.7-85-40.4-28.8-95.6-25.5-135-6.7z"/><path id="whale" class="st0" d="M720.2 300c136.5-118.6 425.6-32.7 456.7 81.7 13.1 48.4-19 105.4-58.3 133.3-59.6 42.4-149.8 27.8-193.3-16.7-39.7-40.5-26.8-91.5-50-96.7-34.8-7.7-114.4 95.8-88.3 155 16.3 36.9 102.7 56.2 275 93.3 67.7 14.6 116.7 23.3 123.3 51.7 5.1 22.2-16.8 51.1-41.7 65-57.2 32.1-126.7-16.9-146.7 10-11.7 15.9 9.8 36.2-3.3 60-14.5 26.2-61.9 39.6-83.3 23.3-28.6-21.7 11.6-78.8-20-120-19.2-25-53.4-29.2-115-36.7-76-9.2-91.4 5.9-115-10-49.1-33.1-34.8-134.4-28.3-180 9-64.9 21.8-155.5 88.2-213.2z"/><path id="barnacle" class="st0" d="M1035.2 800c-37 24.7 5.7 136.1-20 146.7-16.8 6.9-32.9-41.8-83.3-50-33-5.4-56.1 10.6-80-6.7-14-10.1-14.1-21.3-25-23.3-19.3-3.6-49.7 26.4-51.7 51.7-4.3 55.8 125.4 148.1 246.7 136.7 108.1-10.2 216.7-103.3 251.7-133.3 29.4-25.2 56-52.8 90-48.3 47.4 6.2 62.7 68.3 110 66.7 28.6-1 47.1-24.5 50-28.3 25.9-34.2 16.2-90.4-11.7-120-39.5-41.9-106.9-21.4-113.3-46.7-3.3-13 13.6-22.4 53.3-73.3 26.7-34.2 39.9-51.4 36.7-61.7-8.7-27.2-96.2-43.3-158.3-8.3-37.3 21-58.7 57.9-101.7 131.7-35.2 60.6-36.7 78.6-60 88.3-51.4 21.2-102.5-42.5-133.4-21.9z"/><path id="hand" class="st0" d="M1121.8 566.7c11-33.4 57.5-21.7 90-58.3 40.9-46.1 31.9-137.8-8.3-190-18.5-24-25.2-15.6-55-48.3-20.4-22.3-64.9-71.1-60-133.3 1.6-20.7 10.3-64.1 31.7-68.3 30.4-6 86.8 67.9 111.7 140 8.7 25.2 14.4 52.5 40 71.7 4.5 3.3 35 26.1 56.7 16.7 46.3-20.1-16.7-156.9 53.3-231.7 39-41.7 99.9-43.4 113.3-43.3 20.6 0 59.2.1 80 28.3 17.2 23.4 18.8 61.5 1.7 76.7-15.3 13.5-34.3-1-61.7 8.3-18.1 6.2-33.7 20.8-56.7 66.7-30.3 60.7-68 165.5-45 178.3 11 6.1 33.3-10.2 45-25 16.6-21.1 10-37.1 20-73.3 3.6-12.9 14.8-51.9 46.7-83.3 23.2-22.9 47.4-32.1 68.3-40 38.2-14.5 72.3-27.4 105-11.7 25.4 12.2 48.1 40.8 46.7 71.7-.9 18.4-10.6 43.3-26.7 46.7-18.7 4-29.1-24.6-53.3-25-5.8-.1-18.7 1.3-50 38.3-25.6 30.3-35.3 51.2-73.3 118.3-13.6 24-26.9 47.1-25 48.3 4.4 2.9 61.8-129.3 136.7-130 41.9-.4 89.3 40.5 91.7 85 2 39-30.5 80.5-53.3 78.3-15.1-1.4-16.1-21.2-31.7-25-29.6-7.3-47 58.8-101.7 90-60.1 34.3-90.8-16-186.7 13.3-3.8 1.2-42.5 18.6-120 53.3-56.5 25.4-78.9 35.7-100 25-22.7-11.6-37.9-44.4-30.1-68.4z"/><path id="kidney" class="st0" d="M601.8 410c-23.4 32.8-60.3 44.3-78.3 50-37.2 11.7-105.9 19.7-135-11.7-52.3-56.5 21-243.6 148.3-351.7C571.1 67.6 652.9-1.8 768.5 0c145.6 2.3 280 116.5 266.7 168.3-9.5 36.7-94.5 46.5-125 50-34.6 4-56.9.8-186.7-11.7-77.4-7.4-85.6-7.8-95 0-42.6 35.8 24.3 132.1-26.7 203.4z"/><path id="cat" class="st0" d="M350.2 271.7c16.3 89.6-38.5 160.7-5 193.3 10.3 10.1 21.4 9 23.3 18.3 4.9 23.4-62.5 35.7-80 80-20.8 52.7 52 93.1 36.7 143.3-17.9 58.4-140.6 82.8-231.7 58.3-47.9-12.8-96.8-41.8-93.3-60 5-26.4 115.2-6.1 138.3-55 16.2-34.3-28.9-63.5-15-110 15.7-52.3 82.5-48.4 90-90 7.3-41-55-59.4-93.3-151.7-16.5-39.6-25.8-86.3-13.3-93.3 18.4-10.3 64.6 77.5 111.7 68.3 43-8.4 48-90.2 78.3-90 22.8.3 45.8 47.2 53.3 88.5z"/><path id="boomerang" class="st0" d="M1523.5 706.7c12.8 68.4 96.4 72.8 101.7 126.7 7.1 73.3-137.5 168.5-200 136.7-27.7-14.2-27.8-47.6-53.3-51.7-34.5-5.6-87.3 47-81.7 85 11.4 77.2 276.4 177.6 406.7 58.3 96.4-88.3 62.6-245.3 58.3-265-23.3-108.3-106.4-224.7-166.7-213.3-39.9 7.5-74.6 72-65 123.3z"/></g><g id="lil_creatures"><path id="moose-lil" class="st1" d="M435.2 528.4c-6.9 2.5-64.8 23.2-73.3 66.7-8 40.6 36.1 54.5 38.3 106.7 1.8 44.1-27.1 95-66.7 111.7-37.3 15.7-62.1-8.1-96.7 13.3-20.3 12.6-40.3 38.4-35 58.3 9.5 35.9 102.8 60.9 150 26.7 28.1-20.4 19.5-47.1 65-108.3 23.6-31.8 35.7-47.7 53.3-48.3 16.3-.6 29.4 12 93.3 93.3 38.2 48.6 45.3 59.1 63.3 65 29.9 9.8 69.2.3 93.3-26.7 30.8-34.3 32.3-91.5 10-108.3-22.4-16.9-52.9 18.9-96.7 3.3-38.9-13.9-55.8-57-58.3-63.3-13.1-33.3 1-43.8-6.7-91.7-4.8-30-12.4-77.8-48.3-98.3-32.5-18.8-71.2-5-84.8-.1z"/><path id="whale-lil" class="st1" d="M948.5 273.4c-35.4-3.9-141.2-15.7-213.3 53.3-25.7 24.6-41.6 89.2-73.3 218.3-13.4 54.7-18.3 84.1-1.7 105 16.1 20.2 40 17.3 100 25 91.1 11.8 159.7 20.6 176.7 58.3 16.9 37.5-25.9 84.2-8.3 98.3 9.6 7.7 32.3 1.8 41.7-11.7 16-23-15.8-55.3-3.3-71.7 17-22.3 83.8 27.2 141.7-1.7 18.2-9.1 39.6-27.9 36.7-43.3-3.1-16.7-33.6-23.3-123.3-38.3-117.7-19.7-160.6-24.3-215-51.7-32.7-16.4-57.2-29.2-68.3-56.7-19.8-48.8 17.9-106.6 46.7-135 33.3-32.8 92-63.2 120-43.3 21.5 15.2 4.3 45.4 25 78.3 31 49.4 129.7 77 176.7 31.7 33.2-32.1 30.7-91.3 11.7-130-34.9-69.8-127.1-80-170.4-84.8z"/><path id="barnacle-lil" class="st1" d="M1053.5 821.7c-21 15.7 30.6 87.1 0 126.7-16.2 21-52.2 28.8-75 18.3-22.5-10.3-16.5-31.3-40-43.3-27.1-13.9-45.5 8.6-80-5-24.2-9.6-31.4-27.1-40-23.3-10.7 4.7-11.4 37.5-1.7 61.7 25.9 64.7 128.9 77.1 140 78.3 99 10.7 180.8-42.6 216.7-66.7 99.3-66.7 116.7-135.5 168.3-128.3 45.3 6.3 61 63.2 121.7 63.3 9 0 31.1-.2 43.3-15 17.9-21.6 8.7-67.4-16.7-88.3-25.5-21-49.5-2.2-96.7-25-19-9.2-41.4-20-43.3-36.7-4.6-40.2 116.2-68.5 111.7-106.7-2.2-18.7-33.7-31.7-56.7-33.3-42.2-3-74 30.8-98.3 56.7-10 10.6-26.6 29.8-75 116.7-38.3 68.7-41.4 80.8-58.3 86.7-47.2 16.1-99.3-52.3-120-36.8z"/><path id="hand-lil" class="st1" d="M1513.5 35c-9.2-.5-64.3-2.6-103.3 38.3-30.7 32.2-34.7 73.4-38.3 110-6.4 65.2 12.8 90.6-8.3 118.3-14.3 18.7-40.5 30.2-63.3 26.7-12.8-2-35.2-10.3-78.3-91.7-46.8-88.3-53.4-140.6-78.3-141.7-15.1-.7-28.2 17.8-33.3 30-16.9 40.1 19.9 88.9 38.3 113.3 55.5 73.5 94.4 60.8 118.3 111.7 24 51 14.7 127.2-25 163.3-32.6 29.7-74.7 22.3-85 53.3-6 18.3 1.4 42.5 15 48.3 16.4 7 35.5-15.3 70-38.3 0 0 46.1-30.8 111.7-48.3 88.6-23.7 106.2 20 163.3-6.7 56.8-26.5 59.4-79 113.3-85 32.2-3.6 50.1 13.1 66.7 0 20.2-15.9 21-62.3 0-80-23.9-20.3-73.2-.7-101.7 21.7-50.1 39.4-51.7 100.3-78.3 100-12.2-.1-22.3-13-26.7-21.7-8.3-16.5-6.3-38.8 71.7-160 35.8-55.6 45.7-67.1 63.3-71.7 37.1-9.7 67.4 21.7 85 6.7 12.8-11 12-40.6-1.7-55-21.4-22.7-76-9.9-111.7 11.7-55.6 33.6-89.8 103.2-123.3 171.7-11.8 24-25.1 54.1-53.3 61.7-16 4.3-38.9 1.8-48.3-11.7-13-18.5 9.9-42.8 36.7-113.3 19.3-50.9 18.9-68.3 43.3-120 18.4-39 29.1-51 43.3-58.3 20.6-10.6 36.1-4.7 51.7-20 11.3-11.1 20.2-30.9 13.3-45-8-16-32.8-17.5-46.8-18.3z"/><path id="kidney-lil" class="st1" d="M595.2 68.4C519.1 113.3 482 172.9 448.5 226.7c-40.4 64.9-66.8 108.7-53.3 158.3 1.6 5.8 14.3 50.2 53.3 66.7 51.8 21.9 123.8-16.2 143.3-65 18.1-45.4-22-68.2-6.7-140 2.9-13.5 17.3-73.4 56.7-85 18.2-5.3 34.3 1.8 46.7 6.7C797 211 904.5 192.8 950.2 185c55.1-9.3 60.4-21.3 61.7-25 10.3-31-62.6-86.6-123.3-113.3-76.2-33.5-145.1-26.9-170-23.3-60.9 8.6-103 32.9-123.4 45z"/><path id="cat-lil" class="st1" d="M150.2 280c-3.8 5.5 11.6 21.4 25 36.7 37.6 43 64.5 73.8 68.3 111.7.7 7.2 3.9 38.7-15 61.7-18.2 22.1-40.1 15.9-56.7 40-13.1 19-12.1 41.3-11.7 53.3 1.4 36.3 21.3 47.2 18.3 66.7-6.8 44.5-120.6 49.8-120 65 .8 19.9 196.4 48.5 220-6.7 12.5-29.2-35.2-53.9-28.3-116.7 4-36.3 25.7-81.7 58.3-90 13.6-3.5 19.3 2 25-3.3 18.8-17.6-44.6-74.4-31.7-145 3.5-19.3 12.1-36.3 13.3-71.7.2-5.3 1.3-41.8-6.7-43.3-2.5-.5-5.5 2.6-16.7 21.7-20.6 35.3-18.9 39.3-26.7 45-15.4 11.2-41.6 9.3-58.3 0-13.1-7.3-16.6-17-35-23.3-2.8-1.1-18.2-6.4-21.4-1.8z"/><path id="boomerang-lil" class="st1" d="M1590.2 601.7c-22.6 3.3-41.4 39.7-40 71.7 2 44.4 41.8 52.1 70 106.7 6.4 12.4 42.3 85.4 10 148.3-31.2 60.8-115.8 92.5-170 71.7-40-15.4-48.1-53.5-85-53.3-26.5.2-55.6 20.1-58.3 41.7-4.8 38.6 76.1 74.3 96.7 83.3 33.4 14.7 98.7 43.4 178.3 20 16.7-4.9 80.2-24.6 121.7-86.7 51.2-76.6 31.8-162.2 21.7-206.7-16.7-73.5-52.7-114.4-101.7-170-12-13.6-27.1-29.1-43.4-26.7z"/></g></svg>